<?xml version="1.0" standalone="no"?>
<!DOCTYPE svg PUBLIC "-//W3C//DTD SVG 20010904//EN"
 "http://www.w3.org/TR/2001/REC-SVG-20010904/DTD/svg10.dtd">
<svg version="1.0" xmlns="http://www.w3.org/2000/svg"
 width="238.000000pt" height="238.000000pt" viewBox="0 0 238.000000 238.000000"
 preserveAspectRatio="xMidYMid meet">
<metadata>
Created by potrace 1.14, written by Peter Selinger 2001-2017
</metadata>
<g transform="translate(0.000000,238.000000) scale(0.100000,-0.100000)"
fill="#000000" stroke="none">
<path d="M1109 2179 c-35 -16 -54 -34 -86 -82 -31 -48 -172 -289 -278 -475
-18 -32 -126 -217 -135 -232 -5 -8 -75 -130 -156 -270 -81 -140 -166 -288
-190 -327 -24 -40 -44 -75 -44 -78 0 -3 -11 -24 -26 -46 -83 -132 -144 -256
-144 -293 0 -49 19 -97 53 -133 63 -67 7 -64 1107 -61 l995 3 42 30 c60 43 78
78 78 155 0 64 -1 67 -99 235 -129 221 -348 600 -374 647 -12 20 -32 55 -46
77 -15 22 -26 43 -26 45 0 3 -13 26 -29 53 -28 45 -254 434 -279 478 -6 11
-31 55 -56 97 -25 43 -46 82 -46 87 0 5 -18 27 -41 50 -63 63 -137 76 -220 40z
m271 -556 c100 -175 204 -354 230 -398 201 -341 472 -817 467 -821 -6 -7
-1767 -8 -1773 -1 -4 4 336 597 651 1137 59 102 122 210 139 240 70 125 91
160 97 160 3 0 88 -143 189 -317z"/>
<path d="M879 1213 c5 -10 59 -130 121 -268 l112 -249 -17 -33 c-27 -49 -60
-66 -127 -65 l-58 0 6 -36 c11 -79 7 -76 127 -73 97 2 160 38 198 113 11 21
49 106 85 190 36 84 74 171 84 193 10 22 32 74 50 115 18 41 38 87 45 103 l13
27 -86 0 -87 0 -70 -181 c-38 -99 -72 -182 -75 -184 -3 -2 -39 79 -79 181
l-74 184 -89 0 c-81 0 -88 -1 -79 -17z"/>
</g>
</svg>
