<svg aria-hidden="true" style="position: absolute; width: 0; height: 0; overflow: hidden;" version="1.1"
    xmlns="http://www.w3.org/2000/svg" xmlns:xlink="http://www.w3.org/1999/xlink">
    <defs>
        <symbol id="icon-arrow-right" viewBox="0 0 32 32">
            <path
                d="M16.8 14c0.88 1.040 0.56 1.2-1.92 1.2-1.6 0-2.88 0.32-2.88 0.8 0 0.4 1.28 0.8 2.88 0.8 2.48 0 2.8 0.16 1.92 1.2-1.52 1.84 0.32 1.44 2-0.4 1.36-1.52 1.36-1.68 0-3.2-1.68-1.84-3.52-2.24-2-0.4z">
            </path>
        </symbol>
        <symbol id="icon-top" viewBox="0 0 32 32">
            <path
                d="M14.781 0.037c-1.662 0.181-2.675 0.381-3.856 0.781-4.744 1.581-8.525 5.362-10.106 10.106-1.244 3.713-1.050 7.969 0.525 11.525 2.256 5.094 6.95 8.631 12.469 9.406 1.075 0.15 3.3 0.15 4.375 0 5.125-0.719 9.462-3.75 11.956-8.356 2.019-3.738 2.412-8.469 1.044-12.569-1.925-5.744-6.969-9.95-12.938-10.775-0.694-0.094-2.956-0.175-3.469-0.119zM16.55 5.344c0.163 0.069 1.675 1.544 5.031 4.894 2.644 2.637 4.875 4.9 4.956 5.031 0.194 0.294 0.25 0.731 0.15 1.106-0.063 0.244-0.231 0.438-1.206 1.431-0.706 0.706-1.231 1.188-1.387 1.262-0.306 0.144-0.769 0.15-1.081 0.025-0.156-0.069-0.913-0.775-2.275-2.137l-2.044-2.044-0.019 5.369-0.019 5.375-0.137 0.262c-0.2 0.369-0.544 0.625-0.938 0.706-0.212 0.044-0.881 0.063-1.787 0.050-1.269-0.019-1.475-0.031-1.669-0.137-0.306-0.163-0.494-0.344-0.644-0.631-0.137-0.25-0.137-0.269-0.169-5.613l-0.031-5.356-1.938 1.944c-1.063 1.069-2.044 2.012-2.175 2.094-0.294 0.194-0.731 0.25-1.106 0.15-0.244-0.063-0.438-0.225-1.481-1.269s-1.206-1.238-1.269-1.481c-0.1-0.375-0.044-0.813 0.15-1.106 0.25-0.394 9.725-9.813 9.975-9.919 0.287-0.125 0.819-0.125 1.113-0.006z">
            </path>
        </symbol>
    </defs>
</svg>