<?xml version="1.0" encoding="UTF-8"?>
<svg id="_Шар_1" data-name="Шар 1" xmlns="http://www.w3.org/2000/svg" xmlns:xlink="http://www.w3.org/1999/xlink" viewBox="0 0 3066 3066">
  <defs>
    <style>
      .cls-1 {
        letter-spacing: .1em;
      }

      .cls-2 {
        fill: none;
      }

      .cls-2, .cls-3 {
        font-family: FugazOne-Regular, 'Fugaz One';
        font-size: 210.73px;
      }

      .cls-2, .cls-3, .cls-4, .cls-5, .cls-6, .cls-7, .cls-8, .cls-9, .cls-10 {
        stroke-miterlimit: 10;
      }

      .cls-2, .cls-9 {
        stroke: #fff;
        stroke-width: 5px;
      }

      .cls-3 {
        fill: #b51918;
        stroke: #000;
      }

      .cls-3, .cls-5, .cls-7, .cls-10 {
        stroke-width: 10px;
      }

      .cls-4 {
        fill: url(#_Градієнт_без_назви_26-3);
      }

      .cls-4, .cls-11, .cls-5, .cls-6, .cls-7, .cls-8, .cls-10 {
        stroke: #010101;
      }

      .cls-4, .cls-11, .cls-8 {
        stroke-width: 15px;
      }

      .cls-11 {
        fill: url(#_Градієнт_без_назви_26);
        stroke-linejoin: bevel;
      }

      .cls-5 {
        fill: url(#_Градієнт_без_назви_27-2);
      }

      .cls-6 {
        stroke-width: 32px;
      }

      .cls-6, .cls-9 {
        fill: #010101;
      }

      .cls-7 {
        fill: url(#_Градієнт_без_назви_25);
      }

      .cls-12 {
        letter-spacing: .09em;
      }

      .cls-8 {
        fill: url(#_Градієнт_без_назви_26-2);
      }

      .cls-10 {
        fill: url(#_Градієнт_без_назви_27);
      }

      .cls-13 {
        letter-spacing: .1em;
      }

      .cls-14 {
        letter-spacing: .08em;
      }
    </style>
    <linearGradient id="_Градієнт_без_назви_25" data-name="Градієнт без назви 25" x1="1469.6" y1="1171.7" x2="1497.97" y2="1575.81" gradientUnits="userSpaceOnUse">
      <stop offset=".28" stop-color="#b72222"/>
      <stop offset=".76" stop-color="#010101"/>
    </linearGradient>
    <linearGradient id="_Градієнт_без_назви_26" data-name="Градієнт без назви 26" x1="1578.2" y1="1396.75" x2="2213.14" y2="1396.75" gradientUnits="userSpaceOnUse">
      <stop offset="0" stop-color="#fff"/>
      <stop offset=".16" stop-color="#f8f8f8"/>
      <stop offset=".38" stop-color="#e7e7e7"/>
      <stop offset=".64" stop-color="#cacaca"/>
      <stop offset=".92" stop-color="#a3a3a3"/>
      <stop offset="1" stop-color="#969696"/>
    </linearGradient>
    <linearGradient id="_Градієнт_без_назви_26-2" data-name="Градієнт без назви 26" x1="597.85" y1="1399.58" x2="1321.07" y2="1399.58" xlink:href="#_Градієнт_без_назви_26"/>
    <linearGradient id="_Градієнт_без_назви_26-3" data-name="Градієнт без назви 26" x1="530.77" y1="1282.65" x2="2418.88" y2="1282.65" xlink:href="#_Градієнт_без_назви_26"/>
    <linearGradient id="_Градієнт_без_назви_27" data-name="Градієнт без назви 27" x1="132.31" y1="1595.88" x2="2933.1" y2="1595.88" gradientUnits="userSpaceOnUse">
      <stop offset="0" stop-color="#fff"/>
      <stop offset=".29" stop-color="#fcfcfc"/>
      <stop offset=".47" stop-color="#f3f3f3"/>
      <stop offset=".62" stop-color="#e5e5e5"/>
      <stop offset=".76" stop-color="#d0d0d0"/>
      <stop offset=".89" stop-color="#b5b5b5"/>
      <stop offset="1" stop-color="#969696"/>
    </linearGradient>
    <linearGradient id="_Градієнт_без_назви_27-2" data-name="Градієнт без назви 27" x1="517.29" y1="2016.78" x2="2528.73" y2="2016.78" xlink:href="#_Градієнт_без_назви_27"/>
  </defs>
  <rect class="cls-9" x="2.5" y="2.5" width="3061" height="3061"/>
  <g>
    <path class="cls-7" d="m617,1525c3.57-21.99-30.96-40.76-35.8-67.44-3.2-17.64-2.61-32.31.26-52.23,1.1-7.64,3.22-49.54,26.86-77.59,8.87-10.53,17.98-31.97,59.69-52.23,35.13-17.06,76-37.29,122.36-47.75,53.44-12.06,106.49-18.04,144.74-16.41,29.45,1.25,53.18-.59,180.55,22.38,114.42,20.63,118.42,30.87,143.25,34.32,34.62,4.82,95.98-4.81,173.09-2.98,72.5,1.71,128.64,23.28,217.86,5.97,47.68-9.25,40.13-10.27,105.94-24.36,67.51-14.46,118.65-31.38,191-39.8,112.82-13.13,153.54-27.6,173.09-28.35,13.85-.53,41.26,8.06,68.64,7.44,52.45-1.19,86.15-.88,99.97.02,30.08,1.97,64.81-6.98,71.62,2.98,3.08,4.51,20.96,10.13,20.89,22.38-.08,14.23-1.71,43.57-2.98,50.73-3.23,18.17,11.47,44.19,11.33,59.8-.13,14.67-28.83,39.05-24.76,65.54,7.66,49.96,2.72,64.45,0,79.08-1.58,8.49-23.44,10.9-45.76,25.86-13.59,9.1-4.83,25.37-16.91,26.88-16.48,2.06-35.86-1.25-58.19.16-8.2.52-25.05,2.3-38.8.53-2.51-.32-2.7-13.32-6.63-15.14-2.51-1.16-61.4,3.65-44.1-14.42,4.25-4.44.69-8.18,1.49-11.94,2.63-12.34,25.08-25.69,27.61-38.05,3.92-19.22-8.9-55.89-24.62-89.53-26.36-56.38-76.94-62.27-92.51-68.23-33.98-12.99-45.75-3.29-96.99,0-48.17,3.09-58.75-1.78-89.53,16.75-39.56,23.81-56.98,45.11-65.66,56.7-10.22,13.64,14.42,30.34,5.97,80.58-3.12,18.56-27.05,35.02-17.46,44.67,30.34,30.56-42.28,14.13-52.67,15.01-46.9,3.99-91.5-2.98-102.46-2.49-28.01,1.27-36.84,5.64-68.14,10.94-44.91,7.61-93.44,5.9-190.5,2.49-89.56-3.15-131.86,18.65-155.19,12.93-30.61-7.5-74.39-7.41-107.44-1.49-11.36,2.03-20.27-21.25-25.09-27.74-3.98-5.36-25.57-1.42-21.16-15.53,1.94-6.22,8.26-30.87,1.49-64.16-7.76-38.14,6.9-75.32-19.4-89.53-55.21-29.84-73.31-43.03-108.93-52.23-24.19-6.25-45.79-11.23-111.91,13.1-47.78,17.58-72.75,35.11-82.07,45.1-16.75,17.95-16.22,51.71-22.38,95.5-.61,4.34-12.79,30.78,7.46,61.18,1.42,2.13-6.28,26.65-10.45,23.6-15.52-11.37-23.4,56.34-89.65,11.98-19.89-13.32-29.49,20.31-27,5Z"/>
    <path class="cls-11" d="m1595.38,1528.44c88.92,4.67,154.54,8.21,188.01,10.45,25.83,1.73,52.47-3.24,77.59,2.98,5.21,1.29,14.42,3.85,17.31,0,4.92-6.54-15.21-22.61-24.02-49.24-7.9-23.87-3.08-45.25,0-58.94,2.3-10.23,11.39-47.92,47-76.1,8.79-6.96,44.56-34.31,94.75-27.61,4.91.66,54.06,8.01,83.56,50.73,2.54,3.68,21.71,32.2,21.64,69.39-.09,43.03-.13,64.54-5.22,79.83-.51,1.53-1.97,5.73,0,8.95,4.61,7.52,24.1,3.39,39.25,0,59.94-13.41,78.22-15.11,77.88-19.4-.32-4.03-16.69-6.95-43.27-19.4-2.43-1.14-7.2-3.45-8.95-8.21-2.6-7.06,3.09-15.06,4.48-17.16,11.12-16.82,6.74-48.88,3.73-70.88-6.98-51.08-36.94-85.59-41.78-91.02-32.45-36.42-71.42-47.84-92.51-53.72-21.19-5.9-115.66-29.26-186.52,29.84-12.06,10.06-40.85,38.01-53.72,78.34-5.63,17.65-22.77,70.53,2.24,106.69,7.48,10.82,18.79,20.23,15.67,26.86-3.65,7.75-23.95,5.24-30.59,4.48-71.91-8.22-201.68-.4-203.68,11.94-.32,1.96,2.38,5.29,17.16,11.19Z"/>
    <path class="cls-8" d="m1298.19,1536.65c-164.5-1.85-246.15.74-267.59,6.47-2.29.61-11.91,3.4-15.92-.99-6.06-6.65,6.09-23.94,12.93-41.28,12.53-31.75,10.03-70.64-3.98-99.48-18.67-38.44-55.23-53.75-64.66-57.7-11.55-4.83-50.85-20.55-95-2.98-39.59,15.75-57.83,48.23-63.67,60.18,0,0-14.45,30.15-11.94,68.64.73,11.16,3.45,26.44,3.98,29.35,1.85,10.23,2.99,16.37,5.97,24.37,4.5,12.09,7.27,12.52,6.47,15.42-3.72,13.44-102.56,20.65-157.28,4.86-57.62-16.62-69.54-28.68-12-12,6.55,1.9-37.17-12.78,8.63-11.27,3.15.1,13.11-3.8,27.36-4.48,29.72-1.42,45.1,1.57,47.75-4.48,1.48-3.37-1.79-7.78-2.98-9.45-15.23-21.36-18.01-54.8-19.9-77.59-2.64-31.83,12.71-57.36,24.87-77.59,26.41-43.94,64.15-64.28,81.07-73.12,8.96-4.68,38.88-19.53,81.57-24.37,26.73-3.03,100.85-11.43,162.65,38.3,8.64,6.95,59.81,48.13,63.67,102.46,1.68,23.66,4.76,67.05-6.96,89.03-.96,1.79-4.44,7.99-1.99,12.43,4.2,7.62,22.85,4.66,27.85,3.98,52.73-7.15,192.3,22.22,191.99,33.82-.05,1.95-4.08,4.61-22.88,7.46Z"/>
    <path class="cls-4" d="m648.16,1532.92c-2.44,4.3-17.08-3.57-78.34-23.87-21.58-7.15-36.53-11.99-38.8-22.38-1.59-7.32,4.64-15.32,10.45-23.13,7.32-9.85,12.81-9.45,17.91-17.16,5.06-7.66,5.32-15.69,5.22-26.11-.34-37.25-4.63-46.7-2.98-62.67,1.89-18.28,10.09-30.87,18.65-44.02,15.6-23.94,37.77-41.84,90.28-67.89,53.58-26.59,88.66-44,141.76-54.46,38.64-7.62,73.85-9,135.79-5.22,117.47,7.17,155.34,22.19,266.35,35.81,61.27,7.52,133.89,16.12,229.05,12.68,39.06-1.41,123.8-6.36,227.56-32.83,55.15-14.07,161.2-41.12,159.66-68.64-1.28-22.86-76.25-36.2-132.8-46.26-53.94-9.59-110.22-19.6-182.79-8.95-77.45,11.37-142.45,41.72-170.85,55.21-55.96,26.58-81.55,48.1-134.29,51.48-40.28,2.58-85.27-6.13-85.8-15.67-.37-6.7,21.28-12.55,41.78-18.65,72.18-21.5,16.79-12.52,154.44-57.45,104.78-34.2,157.18-51.3,191-55.96,79.44-10.93,142.69-3.08,177.57,1.49,74.52,9.76,132.56,29.07,172.34,42.53,65.14,22.03,88.42,36.92,152.95,52.97,19.65,4.89,55.38,12.78,100.72,17.91,6.49.73,112.71,12.4,189.5,3.73,8.28-.93,34.25-4.14,68.64-1.49,10.82.83,21.19-2.56,30.59,3.73,10.36,6.94,16.6,21.37,14.92,35.07-.68,5.51-2.29,5.79-6.71,17.16-2.94,7.55-4.52,13.21-8.95,31.34-5.43,22.17-8.14,33.26-9.2,38.8-5.09,26.43-4.76,47.38-4.22,73.12.95,45.55,5.74,43.54,4.22,66.4-1.06,16-3.65,55.22-25.86,79.83-41.19,45.64-133.54,22.98-133.55,21.64,0-.86,37.86,6.95,74.61-14.18,4.62-2.66,32.5-18.17,44.76-47,2.14-5.03,6.46-15.48,5.97-29.1-.37-10.27-3.31-17.77-4.48-20.89-10.9-29.17-13.41-68.02-14.18-79.83-.77-11.86,2.99-31.55,8.95-70.88.44-2.91,1.67-10.93,1.49-21.64-.19-11.1-.03-17.07-2.24-21.64-5.8-12-26.35-13.39-43.27-14.18-53.35-2.47-98.57-.22-102.96,0-37.16,1.84-32.18-.11-65.66,1.49-45.59,2.18-65.07,6.27-133.55,14.92-82.59,10.43-75.15,7.11-128.33,14.92-30.08,4.42-68.08,10.07-117.13,20.89-47.77,10.54-54.75,14.67-96.24,23.13-9.37,1.91-54.18,10.91-103.71,15.67-71.26,6.84-124.46,2.23-193.24-3.73-13.99-1.21-85.94-7.62-176.82-23.87-29.21-5.22-49.64-9.54-105.94-19.4-54.51-9.54-82.22-14.35-104.45-16.41-26.11-2.42-70.56-6.3-127.58,0-31.59,3.49-74.96,8.6-126.83,29.84-39.14,16.03-72.85,30.33-99.97,65.66-7.54,9.82-25.69,34.07-31.34,70.88-1.69,11.05-7.13,50.02,13.43,87.29,18.3,33.18,45.76,44.27,42.53,49.99Z"/>
    <path class="cls-10" d="m132.31,1612.75c-.21-8.45,222.44-20.77,413.33-31.34,151.53-8.39,229.82-12.72,341.71-16.41,75.79-2.5,193.39-5.58,680.43-4.48,183.68.42,275.52.62,329.77,1.49,261.61,4.19,451.32,14.39,596.87,22.38,38.37,2.11,134.01,9.36,325.29,23.87,76.16,5.78,113.46,8.74,113.4,11.94-.13,7.17-188.27,9.28-292.46,10.45-107.5,1.21-194.54.98-384.98,0-259.06-1.33-226.2-1.57-265.61-1.49-257.15.53-283.96-4.66-494.06-5.16-116.11-.28-78.13,1.47-353-2-69.33-.88-147.24,7.41-296,6-225.79-2.13-238.57-2.33-313.3-3.31-262.84-3.46-401.23-5.28-401.39-11.94Z"/>
    <path class="cls-5" d="m517.29,1990.27c81.52-3.04,210.01-6.9,368.56-7.46,157.63-.56,190.39,2.69,423.77,4.48,192.48,1.47,346.83.62,458.09,0,101.68-.56,157.14-1.25,393.93-2.98,296.8-2.17,366.79-2.24,367.07,2.98.4,7.42-139.65,21.26-225.32,28.35-156.69,12.97-284.62,27.6-544.41,28.37-143.93.43-250.82,14.45-479,1-224.66-13.24-291.09-16.65-370.27-20.41-167.25-7.95-303.22-22.87-392.44-34.32Z"/>
    <circle class="cls-6" cx="914.5" cy="1443.5" r="137.5"/>
    <circle class="cls-6" cx="1977.5" cy="1441.5" r="137.5"/>
  </g>
  <g>
    <text class="cls-2" transform="translate(147.75 1881.29)"><tspan class="cls-14" x="0" y="0">A</tspan><tspan class="cls-1" x="151.52" y="0">VTOSH</tspan><tspan class="cls-12" x="963.47" y="0">K</tspan><tspan class="cls-13" x="1119.62" y="0">OLA «DRIVER»</tspan></text>
    <text class="cls-3" transform="translate(132.75 1881.29)"><tspan class="cls-14" x="0" y="0">A</tspan><tspan class="cls-1" x="151.52" y="0">VTOSH</tspan><tspan class="cls-12" x="963.47" y="0">K</tspan><tspan class="cls-13" x="1119.62" y="0">OLA «DRIVER»</tspan></text>
  </g>
</svg>