<?xml version="1.0" encoding="utf-8"?>
<!-- Generator: Adobe Illustrator 27.9.0, SVG Export Plug-In . SVG Version: 6.00 Build 0)  -->
<svg version="1.1" id="Шар_1" xmlns="http://www.w3.org/2000/svg" xmlns:xlink="http://www.w3.org/1999/xlink" x="0px" y="0px"
	 viewBox="0 0 3061.42 3061.42" style="enable-background:new 0 0 3061.42 3061.42;" xml:space="preserve">
<style type="text/css">
	.st0{fill:url(#SVGID_1_);stroke:#020203;stroke-width:10;stroke-miterlimit:10;}
	
		.st1{fill:url(#SVGID_00000061438948867125643220000012766992539440437169_);stroke:#020203;stroke-width:15;stroke-linejoin:bevel;stroke-miterlimit:10;}
	.st2{fill:url(#SVGID_00000158022847134727317820000000145576634372374708_);stroke:#020203;stroke-width:15;stroke-miterlimit:10;}
	.st3{fill:url(#SVGID_00000160870202241239586160000014252612111597327271_);stroke:#020203;stroke-width:15;stroke-miterlimit:10;}
	.st4{fill:url(#SVGID_00000152239574138828461230000010674053221369295022_);stroke:#020203;stroke-width:10;stroke-miterlimit:10;}
	.st5{fill:url(#SVGID_00000008854801556897414510000006648878445712321186_);stroke:#020203;stroke-width:10;stroke-miterlimit:10;}
	.st6{fill:url(#SVGID_00000095321607740798695810000007619000813606457512_);stroke:#020203;stroke-width:20;stroke-miterlimit:10;}
	.st7{fill:#020203;stroke:#020203;stroke-width:32;stroke-miterlimit:10;}
	.st8{fill:none;stroke:#010202;stroke-width:5;stroke-miterlimit:10;}
	.st9{font-family:'FugazOne-Regular';}
	.st10{font-size:210.7343px;}
	.st11{letter-spacing:21;}
	.st12{fill:#B51918;stroke:#010202;stroke-width:10;stroke-miterlimit:10;}
</style>
<g>
	<linearGradient id="SVGID_1_" gradientUnits="userSpaceOnUse" x1="1467.5997" y1="1168.6979" x2="1495.9659" y2="1572.8074">
		<stop  offset="0.2771" style="stop-color:#B72222"/>
		<stop  offset="0.7609" style="stop-color:#020203"/>
	</linearGradient>
	<path class="st0" d="M615,1522c3.57-21.99-30.96-40.76-35.8-67.44c-3.2-17.64-2.61-32.31,0.26-52.23
		c1.1-7.64,3.22-49.54,26.86-77.59c8.87-10.53,17.98-31.97,59.69-52.23c35.13-17.06,76-37.29,122.36-47.75
		c53.44-12.06,106.49-18.04,144.74-16.41c29.45,1.25,53.18-0.59,180.55,22.38c114.42,20.63,118.42,30.87,143.25,34.32
		c34.62,4.82,95.98-4.81,173.09-2.98c72.5,1.71,128.64,23.28,217.86,5.97c47.68-9.25,40.13-10.27,105.94-24.36
		c67.51-14.46,118.65-31.38,191-39.8c112.82-13.13,153.54-27.6,173.09-28.35c13.85-0.53,41.26,8.06,68.64,7.44
		c52.45-1.19,86.16-0.88,99.98,0.02c30.08,1.97,64.81-6.98,71.62,2.98c3.08,4.51,20.96,10.13,20.89,22.38
		c-0.08,14.23-1.71,43.57-2.98,50.73c-3.23,18.17,11.47,44.19,11.33,59.8c-0.13,14.67-28.83,39.05-24.76,65.54
		c7.66,49.96,2.72,64.45,0,79.08c-1.58,8.49-23.44,10.9-45.76,25.86c-13.59,9.1-4.83,25.37-16.91,26.88
		c-16.48,2.06-35.86-1.25-58.19,0.16c-8.2,0.52-25.05,2.3-38.8,0.53c-2.51-0.32-2.7-13.32-6.63-15.14
		c-2.51-1.16-61.4,3.65-44.1-14.42c4.25-4.44,0.69-8.18,1.49-11.94c2.63-12.34,25.08-25.69,27.6-38.05
		c3.92-19.22-8.9-55.89-24.62-89.53c-26.35-56.38-76.94-62.27-92.51-68.23c-33.98-12.99-45.75-3.29-96.99,0
		c-48.17,3.09-58.75-1.78-89.53,16.75c-39.56,23.81-56.98,45.11-65.66,56.7c-10.22,13.64,14.42,30.34,5.97,80.58
		c-3.12,18.56-27.05,35.02-17.46,44.67c30.34,30.56-42.28,14.13-52.67,15.01c-46.9,3.99-91.5-2.98-102.46-2.49
		c-28.01,1.27-36.84,5.64-68.14,10.94c-44.91,7.61-93.44,5.9-190.5,2.49c-89.56-3.15-131.86,18.65-155.19,12.93
		c-30.61-7.5-74.39-7.41-107.44-1.49c-11.36,2.03-20.27-21.25-25.09-27.74c-3.98-5.36-25.57-1.42-21.16-15.53
		c1.94-6.22,8.26-30.87,1.49-64.16c-7.76-38.14,6.9-75.31-19.4-89.53c-55.21-29.84-73.31-43.03-108.93-52.23
		c-24.19-6.25-45.79-11.23-111.91,13.1c-47.78,17.58-72.75,35.11-82.07,45.1c-16.75,17.95-16.22,51.71-22.38,95.5
		c-0.61,4.34-12.79,30.78,7.46,61.18c1.42,2.13-6.28,26.65-10.45,23.6c-15.52-11.37-23.4,56.34-89.65,11.98
		C622.11,1503.68,612.51,1537.31,615,1522z"/>
	
		<linearGradient id="SVGID_00000095309361478645909480000015042923267341522824_" gradientUnits="userSpaceOnUse" x1="1576.1959" y1="1393.7456" x2="2211.1399" y2="1393.7456">
		<stop  offset="0" style="stop-color:#FFFFFF"/>
		<stop  offset="0.1603" style="stop-color:#F9F9F9"/>
		<stop  offset="0.3788" style="stop-color:#E7E6E7"/>
		<stop  offset="0.6308" style="stop-color:#CAC9C9"/>
		<stop  offset="0.9059" style="stop-color:#A5A4A4"/>
		<stop  offset="1" style="stop-color:#969696"/>
	</linearGradient>
	
		<path style="fill:url(#SVGID_00000095309361478645909480000015042923267341522824_);stroke:#020203;stroke-width:15;stroke-linejoin:bevel;stroke-miterlimit:10;" d="
		M1593.38,1525.44c88.92,4.67,154.54,8.21,188.01,10.45c25.83,1.73,52.47-3.24,77.59,2.98c5.21,1.29,14.42,3.85,17.31,0
		c4.92-6.54-15.21-22.61-24.02-49.24c-7.9-23.87-3.08-45.25,0-58.94c2.3-10.23,11.39-47.92,47-76.1
		c8.79-6.96,44.56-34.31,94.75-27.61c4.91,0.66,54.06,8.01,83.56,50.73c2.54,3.68,21.71,32.2,21.64,69.39
		c-0.09,43.03-0.13,64.54-5.22,79.83c-0.51,1.53-1.97,5.73,0,8.95c4.61,7.52,24.1,3.39,39.25,0c59.94-13.41,78.22-15.11,77.88-19.4
		c-0.32-4.03-16.69-6.95-43.27-19.4c-2.43-1.14-7.2-3.45-8.95-8.21c-2.6-7.06,3.09-15.06,4.48-17.16
		c11.12-16.82,6.74-48.88,3.73-70.88c-6.98-51.08-36.94-85.59-41.78-91.02c-32.45-36.42-71.42-47.84-92.51-53.72
		c-21.19-5.9-115.66-29.26-186.52,29.84c-12.06,10.06-40.85,38.01-53.72,78.34c-5.63,17.65-22.77,70.53,2.24,106.69
		c7.48,10.82,18.79,20.23,15.67,26.86c-3.65,7.75-23.95,5.24-30.59,4.48c-71.91-8.22-201.68-0.4-203.68,11.94
		C1575.9,1516.21,1578.6,1519.54,1593.38,1525.44z"/>
	
		<linearGradient id="SVGID_00000108997850482306742110000017604609020635221643_" gradientUnits="userSpaceOnUse" x1="595.8515" y1="1396.5803" x2="1319.0707" y2="1396.5803">
		<stop  offset="0" style="stop-color:#FFFFFF"/>
		<stop  offset="0.1603" style="stop-color:#F9F9F9"/>
		<stop  offset="0.3788" style="stop-color:#E7E6E7"/>
		<stop  offset="0.6308" style="stop-color:#CAC9C9"/>
		<stop  offset="0.9059" style="stop-color:#A5A4A4"/>
		<stop  offset="1" style="stop-color:#969696"/>
	</linearGradient>
	
		<path style="fill:url(#SVGID_00000108997850482306742110000017604609020635221643_);stroke:#020203;stroke-width:15;stroke-miterlimit:10;" d="
		M1296.19,1533.65c-164.5-1.85-246.15,0.74-267.59,6.47c-2.29,0.61-11.91,3.4-15.92-0.99c-6.06-6.65,6.09-23.94,12.93-41.28
		c12.53-31.75,10.03-70.64-3.98-99.48c-18.67-38.44-55.23-53.75-64.66-57.7c-11.55-4.83-50.85-20.55-95-2.98
		c-39.59,15.76-57.83,48.23-63.67,60.18c0,0-14.45,30.15-11.94,68.64c0.73,11.16,3.45,26.44,3.98,29.35
		c1.85,10.23,2.99,16.37,5.97,24.37c4.5,12.09,7.27,12.52,6.47,15.42c-3.72,13.44-102.56,20.65-157.28,4.86
		c-57.62-16.62-69.54-28.68-12-12c6.55,1.9-37.17-12.78,8.63-11.27c3.15,0.1,13.11-3.8,27.36-4.48c29.72-1.42,45.1,1.57,47.75-4.48
		c1.48-3.38-1.79-7.78-2.98-9.45c-15.23-21.36-18.01-54.8-19.9-77.59c-2.64-31.83,12.71-57.36,24.87-77.59
		c26.41-43.94,64.15-64.28,81.07-73.12c8.96-4.68,38.88-19.53,81.57-24.37c26.73-3.03,100.85-11.43,162.65,38.3
		c8.64,6.95,59.81,48.13,63.67,102.46c1.68,23.66,4.76,67.05-6.96,89.03c-0.96,1.79-4.44,7.99-1.99,12.43
		c4.2,7.62,22.85,4.66,27.85,3.98c52.73-7.15,192.3,22.22,191.99,33.82C1319.02,1528.13,1314.99,1530.8,1296.19,1533.65z"/>
	
		<linearGradient id="SVGID_00000064326295317607021550000012079746682132219549_" gradientUnits="userSpaceOnUse" x1="528.7709" y1="1279.6482" x2="2416.8826" y2="1279.6482">
		<stop  offset="0" style="stop-color:#FFFFFF"/>
		<stop  offset="0.1603" style="stop-color:#F9F9F9"/>
		<stop  offset="0.3788" style="stop-color:#E7E6E7"/>
		<stop  offset="0.6308" style="stop-color:#CAC9C9"/>
		<stop  offset="0.9059" style="stop-color:#A5A4A4"/>
		<stop  offset="1" style="stop-color:#969696"/>
	</linearGradient>
	
		<path style="fill:url(#SVGID_00000064326295317607021550000012079746682132219549_);stroke:#020203;stroke-width:15;stroke-miterlimit:10;" d="
		M646.16,1529.92c-2.44,4.3-17.08-3.57-78.34-23.87c-21.58-7.15-36.53-11.99-38.8-22.38c-1.59-7.32,4.64-15.32,10.45-23.13
		c7.32-9.85,12.81-9.45,17.91-17.16c5.06-7.66,5.32-15.69,5.22-26.11c-0.34-37.25-4.63-46.7-2.98-62.67
		c1.89-18.28,10.09-30.87,18.65-44.02c15.6-23.94,37.77-41.84,90.28-67.89c53.58-26.59,88.66-43.99,141.76-54.46
		c38.64-7.62,73.85-9,135.79-5.22c117.47,7.17,155.34,22.19,266.35,35.81c61.27,7.52,133.89,16.12,229.05,12.68
		c39.06-1.41,123.8-6.36,227.55-32.83c55.15-14.07,161.2-41.12,159.66-68.64c-1.28-22.86-76.25-36.2-132.8-46.26
		c-53.94-9.59-110.22-19.6-182.79-8.95c-77.45,11.37-142.45,41.72-170.85,55.21c-55.96,26.58-81.55,48.1-134.29,51.48
		c-40.28,2.58-85.27-6.13-85.8-15.67c-0.37-6.7,21.28-12.55,41.78-18.65c72.18-21.5,16.79-12.52,154.44-57.45
		c104.78-34.2,157.18-51.3,191-55.96c79.44-10.93,142.69-3.08,177.57,1.49c74.52,9.76,132.56,29.07,172.34,42.53
		c65.14,22.03,88.42,36.92,152.95,52.97c19.65,4.89,55.38,12.78,100.72,17.91c6.49,0.73,112.71,12.4,189.5,3.73
		c8.28-0.93,34.25-4.14,68.64-1.49c10.82,0.83,21.19-2.56,30.59,3.73c10.36,6.94,16.6,21.37,14.92,35.07
		c-0.68,5.51-2.29,5.79-6.71,17.16c-2.94,7.55-4.52,13.21-8.95,31.34c-5.43,22.17-8.14,33.26-9.2,38.8
		c-5.09,26.43-4.76,47.38-4.22,73.12c0.95,45.55,5.74,43.54,4.22,66.4c-1.06,16-3.65,55.22-25.86,79.83
		c-41.19,45.64-133.54,22.98-133.55,21.64c0-0.86,37.86,6.95,74.61-14.18c4.62-2.66,32.5-18.17,44.76-47
		c2.14-5.03,6.46-15.48,5.97-29.1c-0.37-10.27-3.31-17.77-4.48-20.89c-10.9-29.17-13.41-68.02-14.18-79.83
		c-0.77-11.86,2.99-31.55,8.95-70.88c0.44-2.91,1.67-10.93,1.49-21.64c-0.19-11.1-0.03-17.07-2.24-21.64
		c-5.8-12-26.35-13.39-43.27-14.18c-53.35-2.47-98.57-0.22-102.96,0c-37.16,1.84-32.18-0.11-65.66,1.49
		c-45.58,2.18-65.07,6.27-133.55,14.92c-82.59,10.43-75.15,7.11-128.33,14.92c-30.08,4.42-68.08,10.07-117.13,20.89
		c-47.77,10.54-54.75,14.67-96.24,23.13c-9.37,1.91-54.18,10.91-103.71,15.67c-71.26,6.84-124.46,2.23-193.24-3.73
		c-13.99-1.21-85.94-7.62-176.82-23.87c-29.21-5.22-49.64-9.54-105.94-19.4c-54.51-9.54-82.22-14.35-104.45-16.41
		c-26.11-2.42-70.56-6.3-127.58,0c-31.59,3.49-74.96,8.6-126.83,29.84c-39.14,16.03-72.85,30.33-99.97,65.66
		c-7.54,9.82-25.69,34.07-31.34,70.88c-1.69,11.05-7.13,50.02,13.43,87.29C621.94,1513.11,649.39,1524.2,646.16,1529.92z"/>
	
		<linearGradient id="SVGID_00000096031632055548237850000015206204862728066987_" gradientUnits="userSpaceOnUse" x1="130.3127" y1="1592.8842" x2="2931.1045" y2="1592.8842">
		<stop  offset="0" style="stop-color:#FFFFFF"/>
		<stop  offset="0.2874" style="stop-color:#FDFCFD"/>
		<stop  offset="0.4686" style="stop-color:#F4F3F4"/>
		<stop  offset="0.6204" style="stop-color:#E5E3E4"/>
		<stop  offset="0.7559" style="stop-color:#D0CECF"/>
		<stop  offset="0.8795" style="stop-color:#B7B5B5"/>
		<stop  offset="0.9948" style="stop-color:#989898"/>
		<stop  offset="1" style="stop-color:#969696"/>
	</linearGradient>
	
		<path style="fill:url(#SVGID_00000096031632055548237850000015206204862728066987_);stroke:#020203;stroke-width:10;stroke-miterlimit:10;" d="
		M130.31,1609.75c-0.21-8.45,222.44-20.77,413.33-31.34c151.53-8.39,229.82-12.72,341.71-16.41c75.79-2.5,193.39-5.58,680.43-4.48
		c183.68,0.42,275.52,0.62,329.77,1.49c261.61,4.19,451.32,14.39,596.87,22.38c38.37,2.11,134.01,9.36,325.29,23.87
		c76.16,5.78,113.46,8.74,113.4,11.94c-0.13,7.17-188.27,9.28-292.46,10.45c-107.5,1.21-194.54,0.98-384.98,0
		c-259.06-1.33-226.2-1.57-265.61-1.49c-257.15,0.53-283.96-4.66-494.06-5.16c-116.11-0.28-78.12,1.47-353-2
		c-69.33-0.88-147.24,7.41-296,6c-225.79-2.13-238.57-2.33-313.3-3.31C268.87,1618.22,130.48,1616.4,130.31,1609.75z"/>
	
		<linearGradient id="SVGID_00000134939661516035515080000014161821100244916902_" gradientUnits="userSpaceOnUse" x1="515.2911" y1="2013.7789" x2="2526.729" y2="2013.7789">
		<stop  offset="0" style="stop-color:#FFFFFF"/>
		<stop  offset="0.2874" style="stop-color:#FDFCFD"/>
		<stop  offset="0.4686" style="stop-color:#F4F3F4"/>
		<stop  offset="0.6204" style="stop-color:#E5E3E4"/>
		<stop  offset="0.7559" style="stop-color:#D0CECF"/>
		<stop  offset="0.8795" style="stop-color:#B7B5B5"/>
		<stop  offset="0.9948" style="stop-color:#989898"/>
		<stop  offset="1" style="stop-color:#969696"/>
	</linearGradient>
	
		<path style="fill:url(#SVGID_00000134939661516035515080000014161821100244916902_);stroke:#020203;stroke-width:10;stroke-miterlimit:10;" d="
		M515.29,1987.27c81.52-3.04,210.01-6.9,368.56-7.46c157.63-0.56,190.39,2.69,423.77,4.48c192.48,1.47,346.83,0.62,458.09,0
		c101.68-0.56,157.14-1.25,393.93-2.98c296.8-2.17,366.79-2.24,367.07,2.98c0.4,7.42-139.65,21.26-225.32,28.35
		c-156.69,12.97-284.62,27.6-544.41,28.37c-143.93,0.43-250.82,14.45-479,1c-224.66-13.24-291.09-16.65-370.27-20.41
		C740.48,2013.63,604.51,1998.71,515.29,1987.27z"/>
	
		<linearGradient id="SVGID_00000080186540422380330780000007958332075765351563_" gradientUnits="userSpaceOnUse" x1="825.6613" y1="1533.6486" x2="825.6613" y2="1533.6486">
		<stop  offset="0" style="stop-color:#FFFFFF"/>
		<stop  offset="1" style="stop-color:#020203"/>
	</linearGradient>
	
		<path style="fill:url(#SVGID_00000080186540422380330780000007958332075765351563_);stroke:#020203;stroke-width:20;stroke-miterlimit:10;" d="
		M825.66,1533.65"/>
	<circle class="st7" cx="912.5" cy="1440.5" r="137.5"/>
	<circle class="st7" cx="1975.5" cy="1438.5" r="137.5"/>
</g>
<g>
	<text transform="matrix(1 0 0 1 145.7478 1878.2881)" class="st8 st9 st10 st11">AVTOSHKOLA «DRIVER»</text>
	<text transform="matrix(1 0 0 1 130.7478 1878.2881)" class="st12 st9 st10 st11">AVTOSHKOLA «DRIVER»</text>
</g>
</svg>
